<?xml version="1.0" encoding="utf-8"?>
<!-- Generator: Adobe Illustrator 25.2.3, SVG Export Plug-In . SVG Version: 6.00 Build 0)  -->
<svg version="1.1" id="Layer_1" xmlns="http://www.w3.org/2000/svg" xmlns:xlink="http://www.w3.org/1999/xlink" x="0px" y="0px"
	 viewBox="0 0 33 33" style="enable-background:new 0 0 33 33;" xml:space="preserve">
<style type="text/css">
	.st0{fill:none;stroke:#FFFFFF;stroke-width:1.3;stroke-linecap:round;stroke-linejoin:round;}
	.st1{clip-path:url(#SVGID_2_);fill:#FFFFFF;}
	.st2{opacity:0.27;clip-path:url(#SVGID_2_);fill:#848484;}
	.st3{fill:#FFFFFF;}
</style>
<path class="st0" d="M-4,16.9v-3.7l-4.4-0.7c-0.3-1-0.7-2-1.2-2.9l2.6-3.7l-2.6-2.6l-3.6,2.6c-0.9-0.5-1.9-1-3-1.2l-0.8-4.4h-3.7
	l-0.7,4.4c-1.1,0.3-2.1,0.7-3,1.2l-3.6-2.6l-2.6,2.6l2.5,3.6c-0.6,0.9-1,1.9-1.2,3l-4.4,0.7v3.7l4.4,0.8c0.3,1.1,0.7,2.1,1.2,3
	l-2.6,3.6l2.6,2.6l3.7-2.6c0.9,0.5,1.9,1,3,1.2l0.7,4.4h3.7l0.8-4.4c1.1-0.3,2-0.7,2.9-1.2l3.7,2.6l2.6-2.6l-2.6-3.6
	c0.5-0.9,1-1.9,1.2-2.9L-4,16.9z M-18.9,10.4c-2.6,0-4.7,2.1-4.7,4.7c0,2.6,2.1,4.7,4.7,4.7s4.7-2.1,4.7-4.7
	C-14.2,12.5-16.3,10.4-18.9,10.4L-18.9,10.4z"/>
<g>
	<g>
		<defs>
			<rect id="SVGID_1_" x="2.9" y="1.7" width="27.1" height="29.3"/>
		</defs>
		<clipPath id="SVGID_2_">
			<use xlink:href="#SVGID_1_"  style="overflow:visible;"/>
		</clipPath>
		<path class="st1" d="M14.3,16L14.3,16C14.3,16,14.3,16,14.3,16c-4,0-7.1-3.2-7.1-7.1c0-3.9,3.2-7.1,7.1-7.1c0,0,0,0,0,0
			c0,0,0,0,0,0c3.9,0,7.1,3.2,7.1,7.1C21.4,12.8,18.2,16,14.3,16C14.3,16,14.3,16,14.3,16L14.3,16z"/>
		<path class="st2" d="M28,21.7l1-1c0.5-0.5,0.8-1.1,1-1.7c0-0.2,0.1-0.4,0.1-0.6c0-0.9-0.3-1.7-0.9-2.3c-0.6-0.6-1.4-0.9-2.3-0.9
			c-0.2,0-0.4,0-0.6,0.1c-0.6,0.1-1.2,0.4-1.7,1l-1,1L28,21.7z"/>
		<path class="st2" d="M22,18.7L16,24.7c-0.3,0.3-0.4,0.6-0.5,0.9l-1.1,3.9c-0.1,0.1-0.1,0.3-0.1,0.4c0,0.3,0.1,0.5,0.3,0.7
			c0.2,0.2,0.5,0.3,0.7,0.3c0.1,0,0.3,0,0.4-0.1l3.9-1.1c0.3-0.1,0.7-0.3,0.9-0.5l5.9-5.9L22,18.7z"/>
	</g>
	<path class="st3" d="M12.9,30c0-0.3,0-0.6,0.1-0.9l1.1-3.9c0.2-0.6,0.5-1.1,0.9-1.5l4.9-4.9H6.1c-1.8,0-3.2,1.4-3.2,3.2v0.9
		c0,3.8,4.3,6.9,10,7.3C12.9,30.2,12.9,30.1,12.9,30L12.9,30z"/>
</g>
</svg>
