<?xml version="1.0" encoding="utf-8"?>
<!-- Generator: Adobe Illustrator 25.2.3, SVG Export Plug-In . SVG Version: 6.00 Build 0)  -->
<svg version="1.1" id="Layer_1" xmlns="http://www.w3.org/2000/svg" xmlns:xlink="http://www.w3.org/1999/xlink" x="0px" y="0px"
	 viewBox="0 0 33 33" style="enable-background:new 0 0 33 33;" xml:space="preserve">
<style type="text/css">
	.st0{fill:none;stroke:#FFFFFF;stroke-width:1.3;stroke-linecap:round;stroke-linejoin:round;}
	.st1{clip-path:url(#SVGID_2_);fill:#FFFFFF;}
	.st2{opacity:0.27;clip-path:url(#SVGID_2_);fill:#848484;}
	.st3{fill:#FFFFFF;}
	.st4{opacity:0.27;fill:#848484;}
	.st5{opacity:0.27;fill:none;stroke:#848484;stroke-width:2;stroke-miterlimit:10;}
</style>
<path class="st0" d="M31.4,17.8v-3.7L27,13.4c-0.3-1-0.7-2-1.2-2.9l2.6-3.7l-2.6-2.6L22,6.7c-0.9-0.5-1.9-1-3-1.2l-0.8-4.4h-3.7
	l-0.7,4.4c-1.1,0.3-2.1,0.7-3,1.2L7.3,4.1L4.7,6.8l2.5,3.6c-0.6,0.9-1,1.9-1.2,3l-4.4,0.7v3.7L6,18.6c0.3,1.1,0.7,2.1,1.2,3
	l-2.6,3.6l2.6,2.6l3.7-2.6c0.9,0.5,1.9,1,3,1.2l0.7,4.4h3.7l0.8-4.4c1.1-0.3,2-0.7,2.9-1.2l3.7,2.6l2.6-2.6l-2.6-3.6
	c0.5-0.9,1-1.9,1.2-2.9L31.4,17.8z"/>
<g>
	<g>
		<defs>
			<rect id="SVGID_1_" x="53" y="5.7" width="27.1" height="29.3"/>
		</defs>
		<clipPath id="SVGID_2_">
			<use xlink:href="#SVGID_1_"  style="overflow:visible;"/>
		</clipPath>
		<path class="st1" d="M64.4,20L64.4,20C64.4,20,64.4,20,64.4,20c-4,0-7.1-3.2-7.1-7.1c0-3.9,3.2-7.1,7.1-7.1c0,0,0,0,0,0
			c0,0,0,0,0,0c3.9,0,7.1,3.2,7.1,7.1C71.5,16.8,68.3,20,64.4,20C64.4,20,64.4,20,64.4,20L64.4,20z"/>
		<path class="st2" d="M78.1,25.8l1-1c0.5-0.5,0.8-1.1,1-1.7c0-0.2,0.1-0.4,0.1-0.6c0-0.9-0.3-1.7-0.9-2.3c-0.6-0.6-1.4-0.9-2.3-0.9
			c-0.2,0-0.4,0-0.6,0.1c-0.6,0.1-1.2,0.4-1.7,1l-1,1L78.1,25.8z"/>
		<path class="st2" d="M72.1,22.7l-5.9,5.9c-0.3,0.3-0.4,0.6-0.5,0.9l-1.1,3.9c-0.1,0.1-0.1,0.3-0.1,0.4c0,0.3,0.1,0.5,0.3,0.7
			c0.2,0.2,0.5,0.3,0.7,0.3c0.1,0,0.3,0,0.4-0.1l3.9-1.1c0.3-0.1,0.7-0.3,0.9-0.5l5.9-5.9L72.1,22.7z"/>
	</g>
	<path class="st3" d="M63,34c0-0.3,0-0.6,0.1-0.9l1.1-3.9c0.2-0.6,0.5-1.1,0.9-1.5l4.9-4.9H56.2c-1.8,0-3.2,1.4-3.2,3.2V27
		c0,3.8,4.3,6.9,10,7.3C63,34.2,63,34.1,63,34L63,34z"/>
</g>
<g>
	<path class="st4" d="M6,64.1h2.9V67H6V64.1z M6,69.9h2.9v2.9H6V69.9z M22,65.6c-4.8,0-8.7,3.9-8.7,8.7S17.2,83,22,83
		s8.7-3.9,8.7-8.7S26.8,65.6,22,65.6L22,65.6z M22,80.1c-3.2,0-5.8-2.6-5.8-5.8c0-3.2,2.6-5.8,5.8-5.8s5.8,2.6,5.8,5.8
		C27.8,77.5,25.2,80.1,22,80.1L22,80.1z M23.3,77.5l-3-3l2.3-4.4l1.9,1l-1.6,3l1.9,1.9L23.3,77.5z"/>
	<path class="st3" d="M10.4,75.7H3.1V55.4h20.3v7.4c1,0.1,2,0.4,2.9,0.8v-8.1c0-1.6-1.3-2.9-2.9-2.9H3.1c-1.6,0-2.9,1.3-2.9,2.9
		v20.3c0,1.6,1.3,2.9,2.9,2.9h8.1C10.8,77.7,10.6,76.8,10.4,75.7L10.4,75.7z"/>
	<path class="st4" d="M11.8,67h1.1c0.9-1.2,2.1-2.2,3.4-2.9h-4.5V67z"/>
</g>
<g>
	<path class="st3" d="M-79.5,13.4c0.5-0.5,0.9-0.9,1.4-1.4c0.6,0.9,1.2,2,1.6,3.3c2,6.7-2,13.6-8.8,15.2c-6.7,1.6-13.5-3-14.5-9.8
		c-0.1-0.7-0.3-1.1-1-1.4c-1.2-0.6-1.9-1.8-2.1-3.1c-0.4-2.3-1.3-4.5-2-6.7c-0.3-1.1-0.3-2.2,0.3-3.2c0.4-0.8,1.1-1.4,2-1.6
		c0.3-0.1,0.6-0.2,0.8-0.3c0.5-0.2,1-0.1,1.3,0.3c0.3,0.3,0.3,0.9,0.1,1.2c-0.3,0.4-0.8,0.7-1.3,0.6c-0.3-0.1-0.7-0.4-1,0
		c-0.5,0.5-0.8,0.9-0.8,1.6c0,0.3,0.1,0.6,0.2,0.9c0.6,1.7,1.1,3.5,1.8,5.1c0.3,0.8,0.7,1.6,1,2.4c0,0.1,0.1,0.2,0.2,0.3
		c0.7,1.1,1.8,1,2.4-0.1c0.2-0.4,0.3-0.9,0.5-1.3c0.1-0.3,0.3-0.6,0.4-0.8c0.1-0.1,0.2-0.3,0.2-0.4c0.6-1.4,1.1-2.9,1.7-4.3
		c0.4-1,0.6-2-0.1-2.9c-0.4-0.6-0.6-0.7-1.3-0.5c-0.5,0.2-1,0-1.3-0.4c-0.3-0.4-0.3-0.8,0-1.2c0.3-0.5,0.8-0.7,1.3-0.5
		c0.9,0.4,1.9,0.8,2.6,1.6c0.9,1.1,0.9,2.4,0.4,3.7c-0.5,1.6-1.1,3.2-1.7,4.9c-0.2,0.5-0.2,1-0.3,1.5c-0.3,1.5-1,2.7-2.4,3.4
		c-0.1,0.1-0.2,0.3-0.2,0.4c0.1,1.8,0.7,3.4,1.8,4.8c2.6,3.4,6.1,4.8,10.3,3.8c4.2-0.9,6.7-3.7,7.6-7.9c0.5-2.5,0-4.8-1.3-6.9
		c-0.1-0.1-0.1-0.2-0.2-0.4C-79.6,13.3-79.5,13.4-79.5,13.4z"/>
	<path class="st4" d="M-87.5,13.4c0.3,0.1,0.7,0.1,0.9,0.2c1.5,0.5,3,1.1,4.5,1.6c0.5,0.2,0.7,0.5,0.6,1c-0.4,4.1-2.2,7.4-5.6,9.8
		c-0.3,0.2-0.5,0.2-0.8,0c-3.4-2.3-5.2-5.5-5.6-9.6c-0.1-0.7,0.1-1,0.8-1.2c1.4-0.5,2.8-1,4.1-1.5C-88.2,13.5-87.8,13.4-87.5,13.4z
		 M-90.7,20.5c0.8,0,1.6,0,2.4,0c0,0.8,0,1.6,0,2.3c0.6,0,1.1,0,1.7,0c0-0.8,0-1.6,0-2.4c0.8,0,1.6,0,2.3,0c0-0.6,0-1.1,0-1.7
		c-0.8,0-1.5,0-2.3,0c0-0.8,0-1.6,0-2.3c-0.6,0-1.2,0-1.8,0c0,0.6,0,1.2,0,1.8c0,0.4-0.1,0.6-0.5,0.5c-0.6,0-1.2,0-1.8,0
		C-90.7,19.3-90.7,19.9-90.7,20.5z"/>
	<path class="st3" d="M-85,9.6c0-1.7,1.4-3.1,3.1-3.1c1.7,0,3.1,1.4,3.1,3.1c0,1.7-1.4,3.1-3.1,3.1C-83.6,12.7-85,11.4-85,9.6z"/>
</g>
<path class="st5" d="M16.5,11.3c-2.6,0-4.7,2.1-4.7,4.7c0,2.6,2.1,4.7,4.7,4.7s4.7-2.1,4.7-4.7C21.2,13.4,19.1,11.3,16.5,11.3
	L16.5,11.3z"/>
</svg>
